<?xml version="1.0" encoding="iso-8859-1"?>
<!-- Generator: Adobe Illustrator 16.0.0, SVG Export Plug-In . SVG Version: 6.00 Build 0)  -->
<!DOCTYPE svg PUBLIC "-//W3C//DTD SVG 1.1//EN" "http://www.w3.org/Graphics/SVG/1.1/DTD/svg11.dtd">
<svg version="1.1" id="Capa_1" xmlns="http://www.w3.org/2000/svg" xmlns:xlink="http://www.w3.org/1999/xlink" x="0px" y="0px"
	 width="485.213px" height="485.213px" viewBox="0 0 485.213 485.213" style="enable-background:new 0 0 485.213 485.213;"
	 xml:space="preserve">
<g>
	<path d="M288.094,242.606c0,19.781-12.699,36.43-30.322,42.706v199.9h-30.329v-199.9c-17.618-6.276-30.327-22.925-30.327-42.706
		c0-25.113,20.376-45.487,45.49-45.487C267.722,197.119,288.094,217.493,288.094,242.606z M297.544,138.836
		c-32.907-23.396-76.972-23.396-109.844,0c-32.9,23.396-47.382,65.034-36.072,103.77c0-50.227,40.751-90.978,90.978-90.978
		c50.258,0,90.978,40.751,90.978,90.978C344.864,203.87,330.415,162.232,297.544,138.836z M322.686,87.867
		c-47.235-36.277-112.955-36.277-160.16,0c-47.205,36.28-64.144,99.773-41.222,154.739c-11.196-49.812,9.18-101.401,51.352-130.097
		c42.232-28.698,97.671-28.698,139.87,0c42.232,28.695,62.581,80.285,51.38,130.097C386.798,187.64,369.894,124.147,322.686,87.867z
		 M348.005,36.961c-61.629-49.282-149.169-49.282-210.77,0C75.606,86.269,56.387,171.679,90.977,242.606
		c-22.745-66.279,0.238-139.662,56.714-181.155c56.477-41.49,133.359-41.49,189.831,0c56.48,41.493,79.429,114.88,56.715,181.155
		C428.824,171.679,409.605,86.269,348.005,36.961z"/>
</g>
<g>
</g>
<g>
</g>
<g>
</g>
<g>
</g>
<g>
</g>
<g>
</g>
<g>
</g>
<g>
</g>
<g>
</g>
<g>
</g>
<g>
</g>
<g>
</g>
<g>
</g>
<g>
</g>
<g>
</g>
</svg>
