<?xml version="1.0" encoding="iso-8859-1"?>
<!-- Generator: Adobe Illustrator 16.0.0, SVG Export Plug-In . SVG Version: 6.00 Build 0)  -->
<!DOCTYPE svg PUBLIC "-//W3C//DTD SVG 1.1//EN" "http://www.w3.org/Graphics/SVG/1.1/DTD/svg11.dtd">
<svg version="1.1" id="Capa_1" xmlns="http://www.w3.org/2000/svg" xmlns:xlink="http://www.w3.org/1999/xlink" x="0px" y="0px"
	 width="474.788px" height="474.789px" viewBox="0 0 474.788 474.789" style="enable-background:new 0 0 474.788 474.789;"
	 xml:space="preserve">
<g>
	<path d="M313.208,444.458v30.331H161.577v-30.331c0-16.759,13.567-30.321,30.327-30.321h30.329V214.235
		c-17.653-6.277-30.329-22.922-30.329-42.704c0-25.114,20.376-45.49,45.49-45.49c25.111,0,45.488,20.376,45.488,45.49
		c0,19.781-12.736,36.426-30.322,42.704v199.901h30.322C299.646,414.136,313.208,427.699,313.208,444.458z M162.35,246.574
		l10.662,10.725l21.499-21.443l-10.721-10.722c-29.557-29.557-29.557-77.651,0-107.206l10.721-10.722l-21.44-21.438l-10.723,10.72
		C120.948,137.828,120.948,205.174,162.35,246.574z M140.909,75.044l10.72-10.72l-21.443-21.44l-10.72,10.72
		c-65.036,65.036-65.036,170.819,0,235.855l10.72,10.716l21.443-21.437l-10.72-10.725C87.66,214.828,87.66,128.233,140.909,75.044z
		 M98.026,32.163l10.722-10.72L87.306,0L76.583,10.72c-88.666,88.668-88.666,232.95,0,321.681l10.723,10.716l21.442-21.436
		l-10.722-10.726C21.147,234.078,21.147,108.983,98.026,32.163z M290.998,225.133l-10.721,10.722l21.501,21.443l10.66-10.725
		c41.406-41.399,41.406-108.746,0-150.089l-10.725-10.718l-21.437,21.438l10.721,10.722
		C320.555,147.484,320.555,195.577,290.998,225.133z M355.319,53.604l-10.721-10.72l-21.44,21.44l10.726,10.72
		c53.186,53.188,53.186,139.784,0,192.97l-10.726,10.72l21.44,21.441l10.721-10.716C420.355,224.423,420.355,118.64,355.319,53.604z
		 M398.205,10.72L387.485,0l-21.441,21.443l10.716,10.72c76.82,76.823,76.82,201.856,0,278.792l-10.716,10.726l21.441,21.436
		l10.72-10.716C486.87,243.67,486.87,99.33,398.205,10.72z"/>
</g>
<g>
</g>
<g>
</g>
<g>
</g>
<g>
</g>
<g>
</g>
<g>
</g>
<g>
</g>
<g>
</g>
<g>
</g>
<g>
</g>
<g>
</g>
<g>
</g>
<g>
</g>
<g>
</g>
<g>
</g>
</svg>
