<?xml version="1.0" encoding="iso-8859-1"?>
<!-- Generator: Adobe Illustrator 16.0.0, SVG Export Plug-In . SVG Version: 6.00 Build 0)  -->
<!DOCTYPE svg PUBLIC "-//W3C//DTD SVG 1.1//EN" "http://www.w3.org/Graphics/SVG/1.1/DTD/svg11.dtd">
<svg version="1.1" id="Capa_1" xmlns="http://www.w3.org/2000/svg" xmlns:xlink="http://www.w3.org/1999/xlink" x="0px" y="0px"
	 width="887.4px" height="887.4px" viewBox="0 0 887.4 887.4" style="enable-background:new 0 0 887.4 887.4;" xml:space="preserve"
	>
<g>
	<g>
		<path d="M770.099,216.3c-17.801-42.2-43.4-80-75.9-112.5s-70.4-58-112.5-75.9C538,9.4,491.599,0,443.799,0
			c-47.8,0-94.2,9.4-137.9,27.9c-42.199,17.8-80,43.4-112.5,75.9s-58,70.4-75.9,112.5c-18.5,43.7-27.8,90.1-27.8,137.9v0.101v0.1
			l0,0c0,47.7,9.4,94,27.8,137.6c17.8,42.199,43.4,80,75.9,112.5s70.4,58,112.5,75.9c13.601,5.799,27.5,10.6,41.5,14.6
			l13.101-84.801c-39.9-12.898-76.5-35.199-107.101-65.799c-50.8-50.801-78.8-118.3-78.8-190.201c0-72,28-139.5,78.8-190.3
			c50.301-50.3,117-78.3,188-78.9c0.801,0,1.5,0,2.301,0c0.8,0,1.5,0,2.3,0c71,0.6,137.699,28.6,188,78.9
			c50.799,50.8,78.799,118.3,78.799,190.3c0,71.8-28,139.4-78.799,190.201c-30.5,30.5-67.102,52.799-107.102,65.799L540,695
			c14.1-4,27.898-8.801,41.5-14.6c42.199-17.801,80-43.4,112.5-75.9s58-70.4,75.898-112.5c18.4-43.6,27.801-89.9,27.801-137.6l0,0
			v-0.1V354.2C797.898,306.4,788.599,260,770.099,216.3z"/>
		<path d="M529.199,887.4l-69-448.201c6.699-1.3,13.199-3.399,19.301-6.1c6.699-3,12.898-6.8,18.5-11.4
			c19.799-15.899,32.398-40.3,32.398-67.6c0-36.8-22.898-68.2-55.299-80.8c-6.701-2.6-13.701-4.4-21-5.2
			c-3.4-0.4-6.801-0.6-10.3-0.6c-3.5,0-6.9,0.2-10.3,0.6c-7.3,0.9-14.4,2.6-21,5.2c-32.4,12.6-55.3,44-55.3,80.8
			c0,27.3,12.699,51.7,32.399,67.6c5.601,4.5,11.8,8.4,18.5,11.4c6.101,2.8,12.601,4.8,19.3,6.1l-69,448.201H529.199z"/>
		<path d="M225.899,354.4c0.1,58.1,22.7,112.799,63.8,153.901c22.699,22.699,49.5,39.799,78.8,50.5l13.399-87
			c-42.199-22.301-71-66.601-71-117.5c0-12,1.601-23.601,4.601-34.7c6.899-25.5,21.2-48,40.399-65c17.801-15.7,39.9-26.6,64.301-31
			c6.699-1.2,13.6-1.9,20.6-2c1,0,2.1,0,3.1,0c1,0,2.101,0,3.101,0c7,0.2,13.898,0.9,20.6,2c24.4,4.3,46.4,15.3,64.299,31
			c19.301,17,33.602,39.5,40.4,65c3,11,4.6,22.7,4.6,34.7c0,50.899-28.898,95.2-71,117.5l13.4,87
			c29.301-10.801,56.1-27.801,78.801-50.5c41.1-41.102,63.799-95.701,63.799-153.901l0,0v-0.1V354.2
			c0-58.2-22.699-112.9-63.799-154.1c-38.701-38.7-89.5-61.1-143.9-63.6v0.1c-3.4-0.2-6.801-0.2-10.2-0.2c-3.4,0-6.8,0.1-10.2,0.2
			v-0.1c-54.4,2.5-105.1,24.8-143.9,63.6c-41.2,41.2-63.8,95.9-63.8,154.1v0.101C225.899,354.3,225.899,354.4,225.899,354.4
			L225.899,354.4z"/>
	</g>
</g>
<g>
</g>
<g>
</g>
<g>
</g>
<g>
</g>
<g>
</g>
<g>
</g>
<g>
</g>
<g>
</g>
<g>
</g>
<g>
</g>
<g>
</g>
<g>
</g>
<g>
</g>
<g>
</g>
<g>
</g>
</svg>
