<?xml version="1.0" encoding="UTF-8"?>
<svg xmlns="http://www.w3.org/2000/svg" xmlns:xlink="http://www.w3.org/1999/xlink" width="19pt" height="19pt" viewBox="0 0 19 19" version="1.1">
<g id="surface1">
<path style=" stroke:none;fill-rule:nonzero;fill:rgb(0%,0%,0%);fill-opacity:1;" d="M 16.496094 4.632812 C 16.113281 3.730469 15.566406 2.917969 14.871094 2.222656 C 14.175781 1.527344 13.363281 0.980469 12.460938 0.597656 C 11.523438 0.203125 10.53125 0 9.507812 0 C 8.484375 0 7.488281 0.203125 6.550781 0.597656 C 5.648438 0.980469 4.839844 1.527344 4.144531 2.222656 C 3.445312 2.917969 2.898438 3.730469 2.515625 4.632812 C 2.121094 5.570312 1.921875 6.5625 1.921875 7.585938 L 1.921875 7.589844 C 1.921875 8.613281 2.121094 9.605469 2.515625 10.539062 C 2.898438 11.441406 3.445312 12.253906 4.144531 12.949219 C 4.839844 13.644531 5.652344 14.191406 6.550781 14.574219 C 6.84375 14.699219 7.140625 14.800781 7.441406 14.886719 L 7.722656 13.070312 C 6.867188 12.792969 6.082031 12.316406 5.429688 11.660156 C 4.339844 10.574219 3.738281 9.128906 3.738281 7.585938 C 3.738281 6.042969 4.339844 4.597656 5.429688 3.511719 C 6.503906 2.433594 7.933594 1.832031 9.453125 1.820312 C 9.472656 1.820312 9.488281 1.820312 9.503906 1.820312 C 9.519531 1.820312 9.535156 1.820312 9.554688 1.820312 C 11.074219 1.832031 12.503906 2.433594 13.582031 3.511719 C 14.667969 4.597656 15.269531 6.042969 15.269531 7.585938 C 15.269531 9.125 14.667969 10.574219 13.582031 11.660156 C 12.925781 12.316406 12.144531 12.792969 11.285156 13.070312 L 11.566406 14.886719 C 11.867188 14.800781 12.164062 14.699219 12.457031 14.574219 C 13.359375 14.191406 14.167969 13.644531 14.867188 12.949219 C 15.5625 12.253906 16.109375 11.441406 16.492188 10.539062 C 16.886719 9.605469 17.085938 8.613281 17.085938 7.589844 L 17.085938 7.585938 C 17.089844 6.5625 16.890625 5.570312 16.496094 4.632812 Z M 16.496094 4.632812 "/>
<path style=" stroke:none;fill-rule:nonzero;fill:rgb(0%,0%,0%);fill-opacity:1;" d="M 11.335938 19.007812 L 9.859375 9.40625 C 10 9.378906 10.140625 9.335938 10.269531 9.277344 C 10.414062 9.214844 10.546875 9.132812 10.667969 9.03125 C 11.089844 8.691406 11.363281 8.167969 11.363281 7.585938 C 11.363281 6.796875 10.871094 6.125 10.175781 5.855469 C 10.035156 5.796875 9.882812 5.761719 9.726562 5.742188 C 9.652344 5.734375 9.582031 5.730469 9.507812 5.730469 C 9.429688 5.730469 9.359375 5.734375 9.285156 5.742188 C 9.128906 5.761719 8.976562 5.796875 8.835938 5.855469 C 8.140625 6.125 7.652344 6.796875 7.652344 7.585938 C 7.652344 8.167969 7.921875 8.691406 8.34375 9.03125 C 8.464844 9.128906 8.597656 9.214844 8.742188 9.277344 C 8.871094 9.335938 9.011719 9.378906 9.15625 9.40625 L 7.675781 19.007812 Z M 11.335938 19.007812 "/>
<path style=" stroke:none;fill-rule:nonzero;fill:rgb(0%,0%,0%);fill-opacity:1;" d="M 4.839844 7.589844 C 4.839844 8.835938 5.324219 10.007812 6.207031 10.886719 C 6.691406 11.375 7.265625 11.742188 7.894531 11.96875 L 8.179688 10.105469 C 7.277344 9.628906 6.660156 8.679688 6.660156 7.589844 C 6.660156 7.332031 6.695312 7.082031 6.757812 6.847656 C 6.90625 6.300781 7.210938 5.816406 7.625 5.453125 C 8.003906 5.117188 8.476562 4.882812 9 4.789062 C 9.144531 4.765625 9.292969 4.75 9.441406 4.746094 C 9.464844 4.746094 9.488281 4.746094 9.507812 4.746094 C 9.53125 4.746094 9.554688 4.746094 9.574219 4.746094 C 9.726562 4.75 9.871094 4.765625 10.015625 4.789062 C 10.539062 4.882812 11.011719 5.117188 11.394531 5.453125 C 11.808594 5.816406 12.113281 6.300781 12.257812 6.847656 C 12.324219 7.082031 12.359375 7.332031 12.359375 7.589844 C 12.359375 8.679688 11.738281 9.628906 10.835938 10.105469 L 11.125 11.96875 C 11.75 11.738281 12.324219 11.375 12.8125 10.886719 C 13.691406 10.007812 14.179688 8.839844 14.179688 7.589844 L 14.179688 7.585938 C 14.179688 6.339844 13.691406 5.167969 12.8125 4.285156 C 11.984375 3.457031 10.894531 2.976562 9.730469 2.925781 C 9.65625 2.921875 9.582031 2.921875 9.511719 2.921875 C 9.4375 2.921875 9.363281 2.925781 9.292969 2.925781 C 8.125 2.976562 7.039062 3.457031 6.210938 4.285156 C 5.328125 5.167969 4.84375 6.339844 4.84375 7.585938 L 4.84375 7.589844 C 4.839844 7.589844 4.839844 7.589844 4.839844 7.589844 Z M 4.839844 7.589844 "/>
</g>
</svg>
